# xmcd
#
# Track frame offsets:
#	150
#	25081
#	49988
#	75497
#	97779
#	119161
#	142274
#	158256
#	180984
#	198092
#	216249
#	239281
#
# Disc length: 3486 seconds
#
# Revision: 0
# Processed by: cddbd v1.5.1PL2 Copyright (c) Steve Scherf et al.
# Submitted via: dBpowerAMP V4.0
#
DISCID=970d9c0c
DTITLE=traffic jammies - Daughter of silicon
DYEAR=1900
DGENRE=
TTITLE0=Each need san sea
TTITLE1=Samurai 7
TTITLE2=Old taste of cindy
TTITLE3=Simphony
TTITLE4=No pump (Ninja ver.4)
TTITLE5=Deathper
TTITLE6=Gigolo
TTITLE7=Dasein
TTITLE8=Oedo dragnet
TTITLE9=Eltopo
TTITLE10=S.O.S
TTITLE11=Daughter of silicon
EXTD=
EXTT0=
EXTT1=
EXTT2=
EXTT3=
EXTT4=
EXTT5=
EXTT6=
EXTT7=
EXTT8=
EXTT9=
EXTT10=
EXTT11=
PLAYORDER=
